<svg id="グループ_136" data-name="グループ 136" xmlns="http://www.w3.org/2000/svg" width="41.953" height="31.167" viewBox="0 0 41.953 31.167">
  <path id="パス_326" data-name="パス 326" d="M836.639,230.235a14.834,14.834,0,0,0,5.509-5.042,25.06,25.06,0,0,0,2.831-6.826c.592-2.146,1-4.336,1.487-6.507a14.221,14.221,0,0,1,1.208-3.483c.212-.411.449-.811.7-1.2.19-.3.592-.748.217-1.058s-1.469-.121-1.963-.1c-.77.027-1.536.067-2.3.125-.366.025-.732.069-1.1.1-.223.02-.444.04-.665.063-.677.067-1.349.145-2.021.237-.315.04-.623.085-.931.132s-.612.078-.916.129c-4.14.681-8.452,1.775-12,4.113a13.631,13.631,0,0,0-2.222,1.813c-3.142,3.211-4.319,8.072-4.538,12.422-.065,1.331.009,2.646.054,3.979a3.314,3.314,0,0,1-.377,1.443c-.154.368-.29.741-.435,1.112l0,.011c-.143.364-.292.726-.429,1.094-.205.549-.4,1.1-.587,1.657a1.94,1.94,0,0,0-.076,1.532c.163.33.628.828,1.045.793a.4.4,0,0,1,.085,0l0,0v0l.011,0s.011-.02.036-.038c.051-.047.076-.277.1-.348a51.505,51.505,0,0,1,5.556-12.353,32.6,32.6,0,0,1,4.609-5.913,21.9,21.9,0,0,1,2.927-2.472c.08-.06.494-.42.581-.4.237.074.158.663.1.811a2.5,2.5,0,0,1-.677.759c-.328.306-.648.621-.956.938a30.533,30.533,0,0,0-5.049,6.86,32,32,0,0,0-1.742,3.854c-.214.565-.406,1.137-.6,1.715-.165.511-.712,1.492-.165,1.929.306.25.911.181,1.291.2.5.025.985.045,1.483.049a26.773,26.773,0,0,0,3.108-.134A18.477,18.477,0,0,0,836.639,230.235Z" transform="translate(-817.942 -205.936)" fill="#fff"/>
  <path id="パス_327" data-name="パス 327" d="M853.759,213.7c-.245-.442-1.322-.661-1.784-.824-.3-.109-.6-.2-.9-.306l-.339-.114c-.317-.107-.63-.221-.947-.322-1.8-.572-3.631-1.07-5.475-1.467q-1.011-.224-2.041-.413c-.244,1.15-.509,2.32-.833,3.481a27.112,27.112,0,0,1-3.153,7.541,17.432,17.432,0,0,1-6.482,5.946,20.963,20.963,0,0,1-7.775,2.3c-.3.034-.619.056-.931.076-.074,0-.145.007-.217.007l.02.009-.027,0c.279.123.56.248.846.364a26.621,26.621,0,0,0,2.941,1.025,18.388,18.388,0,0,0,7.063.668,14.833,14.833,0,0,0,6.985-2.644,25.236,25.236,0,0,0,5.16-5.288c1.344-1.775,2.53-3.664,3.789-5.493a14.541,14.541,0,0,1,2.414-2.791c.348-.3.719-.585,1.092-.855C853.453,214.392,853.993,214.131,853.759,213.7Z" transform="translate(-811.864 -200.609)" fill="#fff"/>
</svg>
