<svg id="グループ_140" data-name="グループ 140" xmlns="http://www.w3.org/2000/svg" width="36.742" height="38.926" viewBox="0 0 36.742 38.926">
  <path id="パス_317" data-name="パス 317" d="M854.393,310.71a2.022,2.022,0,0,0-1.567-.744H826.418l-.9-3.088v0a3.95,3.95,0,0,0-2.956-2.731l-3.227-.69a1.012,1.012,0,1,0-.427,1.978l3.229.692a1.925,1.925,0,0,1,1.44,1.331l5.9,20.264c-.132.063-.261.129-.384.2a4.1,4.1,0,0,0-1.489,1.532,4.227,4.227,0,0,0-.516,1.95h0v.1h0a4.187,4.187,0,0,0,4.191,4.089h18.974a1.012,1.012,0,0,0,0-2.023H831.279a2.159,2.159,0,0,1-.844-.17,2.186,2.186,0,0,1-.956-.788,2.144,2.144,0,0,1-.368-1.159,2.122,2.122,0,0,1,.462-1.315,2.1,2.1,0,0,1,.558-.48,2.533,2.533,0,0,1,.786-.3l19.07-3.106a3.039,3.039,0,0,0,2.49-2.392L854.81,312.4v0a2.025,2.025,0,0,0-.418-1.684Zm-3.9,12.75a1.008,1.008,0,0,1-.829.8l-18.221,2.968-4.435-15.233h25.818Z" transform="translate(-818.109 -303.432)" fill="#1a1311"/>
  <path id="パス_318" data-name="パス 318" d="M827.462,318.839a2.8,2.8,0,1,0,.752,3.879,2.751,2.751,0,0,0,.478-1.563,2.791,2.791,0,0,0-1.23-2.316Zm-.525,2.755a1.133,1.133,0,0,1-.409.5,1.121,1.121,0,0,1-.63.192,1.1,1.1,0,0,1-.438-.089,1.121,1.121,0,0,1-.5-.409,1.106,1.106,0,0,1-.192-.63,1.112,1.112,0,0,1,.5-.933,1.1,1.1,0,0,1,.628-.192,1.136,1.136,0,0,1,.44.087,1.156,1.156,0,0,1,.5.411,1.116,1.116,0,0,1,.192.627A1.144,1.144,0,0,1,826.937,321.594Z" transform="translate(-811.949 -285.024)" fill="#1a1311"/>
  <path id="パス_319" data-name="パス 319" d="M834.324,318.839a2.791,2.791,0,1,0,1.011,1.23A2.791,2.791,0,0,0,834.324,318.839Zm-.525,2.755a1.14,1.14,0,0,1-.411.5,1.115,1.115,0,0,1-.628.192,1.088,1.088,0,0,1-.438-.089,1.126,1.126,0,0,1-.192-1.972,1.1,1.1,0,0,1,.63-.192,1.112,1.112,0,0,1,.933.5,1.1,1.1,0,0,1,.192.627A1.143,1.143,0,0,1,833.8,321.594Z" transform="translate(-803.488 -285.024)" fill="#1a1311"/>
</svg>
