<svg id="グループ_263" data-name="グループ 263" xmlns="http://www.w3.org/2000/svg" width="40.469" height="47.964" viewBox="0 0 40.469 47.964">
  <path id="パス_569" data-name="パス 569" d="M685.323,180H662.576a2.082,2.082,0,0,0-1.473.611L650.61,191.1a2.083,2.083,0,0,0-.61,1.473v30.242a5.147,5.147,0,0,0,5.146,5.146h30.176a5.146,5.146,0,0,0,5.146-5.146V185.146A5.146,5.146,0,0,0,685.323,180ZM654,193.759a.943.943,0,0,1,.944-.942H660.6a2.216,2.216,0,0,0,2.215-2.215V184.94a.943.943,0,0,1,.943-.943h21.564a1.149,1.149,0,0,1,1.149,1.15v37.671a1.15,1.15,0,0,1-1.15,1.15H655.146a1.15,1.15,0,0,1-1.15-1.15Z" transform="translate(-650 -180)" fill="#302d2c"/>
  <path id="パス_570" data-name="パス 570" d="M668.82,203.909h11.84a.845.845,0,0,0,0-1.69H668.82a.845.845,0,0,0,0,1.69Z" transform="translate(-654.504 -185.567)" fill="#302d2c"/>
  <path id="パス_571" data-name="パス 571" d="M668.82,214.8h11.84a.845.845,0,0,0,0-1.689H668.82a.845.845,0,0,0,0,1.689Z" transform="translate(-654.504 -188.297)" fill="#302d2c"/>
  <path id="パス_572" data-name="パス 572" d="M668.82,225.7h11.84a.845.845,0,0,0,0-1.689H668.82a.845.845,0,0,0,0,1.689Z" transform="translate(-654.504 -191.026)" fill="#302d2c"/>
</svg>
