<svg xmlns="http://www.w3.org/2000/svg" width="48.975" height="48.423" viewBox="0 0 48.975 48.423">
  <g id="グループ_381" data-name="グループ 381" transform="translate(-330.049)">
    <rect id="長方形_122" data-name="長方形 122" width="48.976" height="48.423" transform="translate(330.049)" fill="#696969"/>
    <text id="資料請求" transform="translate(336.537 42)" fill="#fff" font-size="8" font-family="SourceHanSans-Medium, Source Han Sans" font-weight="500" letter-spacing="0.1em"><tspan x="0" y="0">資料請求</tspan></text>
    <g id="グループ_263" data-name="グループ 263" transform="translate(343.664 7.787)">
      <path id="パス_569" data-name="パス 569" d="M667.234,180h-11.1a1.016,1.016,0,0,0-.719.3l-5.119,5.119a1.017,1.017,0,0,0-.3.719v14.755a2.511,2.511,0,0,0,2.511,2.511h14.723a2.511,2.511,0,0,0,2.511-2.511v-18.38A2.511,2.511,0,0,0,667.234,180Zm-15.284,6.713a.46.46,0,0,1,.46-.46h2.762a1.081,1.081,0,0,0,1.081-1.081V182.41a.46.46,0,0,1,.46-.46h10.521a.561.561,0,0,1,.561.561v18.38a.561.561,0,0,1-.561.561H652.511a.561.561,0,0,1-.561-.561Z" transform="translate(-650 -180)" fill="#fff"/>
      <path id="パス_570" data-name="パス 570" d="M668.388,203.044h5.777a.412.412,0,0,0,0-.825h-5.777a.412.412,0,0,0,0,.825Z" transform="translate(-661.403 -194.095)" fill="#fff"/>
      <path id="パス_571" data-name="パス 571" d="M668.388,213.937h5.777a.412.412,0,1,0,0-.824h-5.777a.412.412,0,0,0,0,.824Z" transform="translate(-661.403 -201.005)" fill="#fff"/>
      <path id="パス_572" data-name="パス 572" d="M668.388,224.831h5.777a.412.412,0,1,0,0-.824h-5.777a.412.412,0,0,0,0,.824Z" transform="translate(-661.403 -207.916)" fill="#fff"/>
    </g>
  </g>
</svg>
