<svg xmlns="http://www.w3.org/2000/svg" width="48.975" height="48.423" viewBox="0 0 48.975 48.423">
  <g id="グループ_380" data-name="グループ 380" transform="translate(-281.074)">
    <rect id="長方形_171" data-name="長方形 171" width="48.976" height="48.423" transform="translate(281.074)" fill="#696969"/>
    <g id="グループ_185" data-name="グループ 185" transform="translate(294.895 8.476)">
      <g id="グループ_184" data-name="グループ 184">
        <path id="パス_541" data-name="パス 541" d="M591.612,12.137c-.132-.183-.269-.363-.415-.538a11.016,11.016,0,0,0-17,0c-.145.175-.283.355-.412.538a11.014,11.014,0,0,0,.008,12.948c.135.186.277.369.425.544a11.009,11.009,0,0,0,16.986-.035q.222-.262.42-.541a11.009,11.009,0,0,0-.013-12.916Zm.364,6.119h-3.7a16.309,16.309,0,0,0-.538-3.922,12.237,12.237,0,0,0,2.487-1.166A9.225,9.225,0,0,1,591.976,18.255Zm-8.934-8.862c1.61.221,3.031,1.981,3.841,4.485a15.266,15.266,0,0,1-3.841.563Zm-.686,0v5.047a15.268,15.268,0,0,1-3.841-.563C579.324,11.375,580.745,9.614,582.355,9.394Zm0,5.736v3.125H577.8a15.849,15.849,0,0,1,.517-3.72A15.791,15.791,0,0,0,582.355,15.13Zm0,3.814v3.128a15.907,15.907,0,0,0-4.033.606,15.809,15.809,0,0,1-.52-3.734Zm0,3.814v5.05c-1.607-.223-3.026-1.976-3.839-4.471A15.24,15.24,0,0,1,582.355,22.759Zm.686,5.05v-5.05a15.054,15.054,0,0,1,3.844.555C586.075,25.82,584.651,27.585,583.042,27.809Zm0-5.739V18.944h4.549a15.62,15.62,0,0,1-.511,3.709A15.7,15.7,0,0,0,583.042,22.07Zm0-3.814V15.13a15.792,15.792,0,0,0,4.035-.595,15.7,15.7,0,0,1,.514,3.72Zm6.767-5.623a11.564,11.564,0,0,1-2.261,1.044,8.771,8.771,0,0,0-2.471-4.054A9.265,9.265,0,0,1,589.809,12.632Zm-9.492-3.01a8.793,8.793,0,0,0-2.468,4.051,11.458,11.458,0,0,1-2.258-1.042A9.268,9.268,0,0,1,580.317,9.622Zm-5.147,3.545a12.146,12.146,0,0,0,2.484,1.166,16.315,16.315,0,0,0-.538,3.922h-3.7A9.227,9.227,0,0,1,575.17,13.168Zm-1.75,5.777h3.7a16.4,16.4,0,0,0,.541,3.938,12.3,12.3,0,0,0-2.479,1.163A9.228,9.228,0,0,1,573.421,18.944Zm2.186,5.645a11.615,11.615,0,0,1,2.248-1.044,8.779,8.779,0,0,0,2.468,4.038A9.267,9.267,0,0,1,575.606,24.589Zm9.467,2.993a8.788,8.788,0,0,0,2.477-4.067,11.337,11.337,0,0,1,2.269,1.044A9.314,9.314,0,0,1,585.074,27.583Zm5.169-3.564a12.024,12.024,0,0,0-2.5-1.163,16.5,16.5,0,0,0,.533-3.911h3.7A9.206,9.206,0,0,1,590.242,24.019Z" transform="translate(-571.687 -7.59)" fill="#fbfbfb"/>
      </g>
    </g>
    <text id="EN" transform="translate(300 42)" fill="#fff" font-size="8" font-family="SourceHanSans-Medium, Source Han Sans" font-weight="500"><tspan x="0" y="0">EN</tspan></text>
  </g>
</svg>
