<svg id="グループ_257" data-name="グループ 257" xmlns="http://www.w3.org/2000/svg" width="46.225" height="34.342" viewBox="0 0 46.225 34.342">
  <path id="パス_559" data-name="パス 559" d="M156.838,1101.861a16.313,16.313,0,0,0,6.069-5.556,27.534,27.534,0,0,0,3.122-7.522c.65-2.363,1.1-4.777,1.639-7.169a15.786,15.786,0,0,1,1.329-3.838c.234-.453.5-.892.77-1.325.209-.333.652-.823.239-1.164-.43-.354-1.619-.135-2.163-.116-.848.028-1.692.073-2.539.136-.4.028-.808.078-1.211.114q-.368.033-.732.068c-.745.074-1.486.162-2.227.26q-.518.069-1.026.145c-.336.051-.674.086-1.008.143-4.563.752-9.314,1.956-13.222,4.532a15.1,15.1,0,0,0-2.449,2c-3.461,3.537-4.758,8.894-5,13.686-.072,1.468.01,2.917.06,4.386a3.633,3.633,0,0,1-.418,1.588c-.169.406-.32.817-.479,1.225l-.005.013c-.157.4-.323.8-.471,1.2q-.341.908-.647,1.827a2.132,2.132,0,0,0-.084,1.688c.178.363.692.912,1.151.873a.358.358,0,0,1,.093,0l0,0v0l.012,0c0-.006.014-.022.04-.042.057-.052.085-.306.11-.385a56.757,56.757,0,0,1,6.122-13.609,35.991,35.991,0,0,1,5.08-6.517,24.075,24.075,0,0,1,3.224-2.722c.088-.067.544-.463.64-.435.259.08.175.73.117.893a2.8,2.8,0,0,1-.747.836c-.361.335-.713.684-1.053,1.033a33.561,33.561,0,0,0-5.562,7.557,35.653,35.653,0,0,0-1.921,4.247c-.234.623-.446,1.254-.659,1.89-.182.564-.784,1.644-.182,2.127.339.274,1.006.2,1.423.219.546.028,1.085.05,1.633.054a29.105,29.105,0,0,0,3.426-.148A20.312,20.312,0,0,0,156.838,1101.861Z" transform="translate(-136.238 -1075.087)" fill="#302d2c"/>
  <path id="パス_560" data-name="パス 560" d="M184.3,1091.178c-.272-.488-1.456-.728-1.966-.907-.329-.121-.663-.224-.994-.337l-.375-.127c-.348-.116-.693-.243-1.041-.353-1.981-.628-4-1.178-6.033-1.617-.743-.164-1.494-.318-2.25-.456-.269,1.267-.562,2.558-.918,3.837a29.847,29.847,0,0,1-3.473,8.309,19.218,19.218,0,0,1-7.143,6.552,23.085,23.085,0,0,1-8.567,2.535c-.335.035-.681.061-1.027.083-.08,0-.158.008-.239.007l.022.01-.028,0c.306.137.617.274.931.4a29.452,29.452,0,0,0,3.239,1.129,20.292,20.292,0,0,0,7.783.737,16.364,16.364,0,0,0,7.7-2.913,27.807,27.807,0,0,0,5.687-5.827c1.481-1.955,2.786-4.036,4.175-6.053a15.911,15.911,0,0,1,2.659-3.074c.385-.335.792-.646,1.2-.944C183.961,1091.94,184.556,1091.649,184.3,1091.178Z" transform="translate(-138.136 -1076.751)" fill="#302d2c"/>
</svg>
