<svg id="グループ_259" data-name="グループ 259" xmlns="http://www.w3.org/2000/svg" width="34.741" height="35.331" viewBox="0 0 34.741 35.331">
  <path id="パス_564" data-name="パス 564" d="M84.219,1191.659H69.448a9.985,9.985,0,0,0-9.985,9.985v15.361a9.985,9.985,0,0,0,9.985,9.985H84.219a9.984,9.984,0,0,0,9.985-9.985v-15.361A9.984,9.984,0,0,0,84.219,1191.659Zm-21.211,9.985a6.447,6.447,0,0,1,6.44-6.44H84.219a6.447,6.447,0,0,1,6.44,6.44v15.361a6.447,6.447,0,0,1-6.44,6.44H69.448a6.447,6.447,0,0,1-6.44-6.44Z" transform="translate(-59.463 -1191.659)" fill="#bdbebf"/>
  <path id="パス_565" data-name="パス 565" d="M76.834,1218.423a9.1,9.1,0,1,0-9.1-9.1A9.109,9.109,0,0,0,76.834,1218.423Zm0-15.361a6.263,6.263,0,1,1-6.263,6.262A6.269,6.269,0,0,1,76.834,1203.062Z" transform="translate(-59.463 -1191.659)" fill="#bdbebf"/>
  <path id="パス_566" data-name="パス 566" d="M86.2,1202a2.039,2.039,0,1,0-2.038-2.038A2.038,2.038,0,0,0,86.2,1202Z" transform="translate(-59.463 -1191.659)" fill="#bdbebf"/>
</svg>
