<svg xmlns="http://www.w3.org/2000/svg" width="415.824" height="53.472" viewBox="0 0 415.824 53.472">
  <g id="グループ_120" data-name="グループ 120" transform="translate(-134.073 -249.325)">
    <g id="グループ_118" data-name="グループ 118" transform="translate(316.432 264.502)">
      <g id="グループ_115" data-name="グループ 115" transform="translate(60.314 4.226)">
        <path id="パス_188" data-name="パス 188" d="M499.132,281.119h3.014v1.95h-3.014v2.25l3.085,3.541v2.86l-3.085-3.844v13.415h-1.991V290.834a19.28,19.28,0,0,1-3.439,5.3V293.1a17.507,17.507,0,0,0,3.439-8.417v-1.613H493.7v-1.95h3.439v-2.983h1.991Zm6.736-.088H509v-2.9h2.066v2.9h5.188v1.993h-5.188v5.381h5.8v1.983h-4.9a17.276,17.276,0,0,0,4.9,8.024v2.6c-1.99-1.311-4.6-4.924-5.8-8.621v8.877H509v-8.8c-1.272,3.719-3.979,7.193-6.1,8.546v-2.6a17.135,17.135,0,0,0,5.112-8.024h-4.875v-1.983H509v-5.381h-3.471a19.563,19.563,0,0,1-1.092,3.661h-1.967a22.186,22.186,0,0,0,1.752-8.1h1.839C506.015,279.451,505.95,280.272,505.868,281.031Z" transform="translate(-493.702 -278.097)" fill="#fff"/>
        <path id="パス_189" data-name="パス 189" d="M543.547,288v2.039h-5.711v8.6a25.436,25.436,0,0,0,6.253-1.3v2.093c-3.628,1.172-8.341,1.529-14.078,1.529v-2.025c1.967,0,3.839-.026,5.683-.123v-8.774h-5.683V288Zm1.306-6.459v-3.4H547v3.4h3.038l-.646-3.4h1.662l.691,3.4h1.43v2.068H547v.87c0,7.215,1.906,11.533,6.175,14.184v2.6c-5.8-3.034-8.317-8.861-8.317-16.814v-.843H530.011v-2.068Z" transform="translate(-505.51 -278.097)" fill="#fff"/>
        <path id="パス_190" data-name="パス 190" d="M589.481,293.947H573.439l-2.394,5.021c7.267,0,10.891-.078,14.413-1.315l-1.2-2.616h2.321l2.9,6.209h-2.344l-.916-1.918c-3.414,1.457-7.24,1.636-13.619,1.636-1.871,0-3.958-.023-6.31-.023v-1.974h2.352l2.377-5.021h-4.729v-1.964h23.188Zm-2.216-5.527H568.537v-2h18.728Zm-20.972-4.093c4.463-.737,8.1-2.72,10.106-6.248h2.991c2.009,3.528,5.586,5.609,10.091,6.248v2.2c-4.89-.737-9.153-3.006-11.6-6.68-2.5,3.674-6.63,5.836-11.589,6.68Z" transform="translate(-517.31 -278.078)" fill="#fff"/>
        <path id="パス_191" data-name="パス 191" d="M608.235,280.723h3.522v1.886a15.787,15.787,0,0,1-3.31,7.355l3.823,3.34v2.574l-3.823-3.538v8.926H606.38v-8.978a20.075,20.075,0,0,1-3.778,2.966v-2.561c3.188-1.876,6.576-6.284,7.06-10H602.6v-1.97h3.562v-2.587h2.071Zm9.822,4.265v-6.852h2.116v6.852H625.1v2.159h-4.927V298.8h5.581v2.165H612.448V298.8h5.609V287.146h-4.923v-2.159Z" transform="translate(-529.118 -278.097)" fill="#fff"/>
        <path id="パス_192" data-name="パス 192" d="M654.854,301.83H648.33V299.7h6.4c7.269,0,9.976-2.613,10.817-6.076-3.287-1.593-7.122-2.149-15.428-2.149v-2.064c8.59,0,12.516.717,15.729,2.246l.028-8.471h-14.54c-.2,3.853-2.1,7.5-5.2,8.933v-2.422c2.036-1.3,3.27-3.807,3.27-8.7h18.616v9.649C668.022,296.549,665.132,301.83,654.854,301.83Z" transform="translate(-543.276 -279.025)" fill="#fff"/>
        <path id="パス_193" data-name="パス 193" d="M689.753,301.788h-5.286v-2.172h5.244c8.551,0,12.261-3.435,12.261-10.442v-6.017h-13.88c-.119,3.879-1.651,6.985-5.56,8.449v-2.273c2.646-1.259,3.688-3.524,3.688-8.344h17.93v8.293C704.15,296.939,699.851,301.788,689.753,301.788Z" transform="translate(-555.112 -279.025)" fill="#fff"/>
        <path id="パス_194" data-name="パス 194" d="M724.466,289.906v11.919h-2.138v-21.97h2.138v7.7c3.981,2.065,10.28,3.2,16.74,3.2v2.19C734.649,292.947,728.367,291.821,724.466,289.906Z" transform="translate(-568.054 -278.656)" fill="#fff"/>
      </g>
      <g id="グループ_117" data-name="グループ 117" transform="translate(0 0)">
        <g id="グループ_116" data-name="グループ 116">
          <path id="パス_195" data-name="パス 195" d="M443.457,292.805a7.523,7.523,0,0,0-3.593,2.408c-1.029,1.12-3.089,4.3-1.578,4.3,1.7,0,4.586-3.57,5.695-6.189C444.023,293.22,444.046,292.7,443.457,292.805Z" transform="translate(-415.192 -278.637)" fill="#fff"/>
          <path id="パス_196" data-name="パス 196" d="M431.421,271.816c-14.981,0-27.1,6.92-27.1,15.482,0,8.539,12.12,15.476,27.1,15.476s27.116-6.936,27.116-15.476C458.536,278.736,446.4,271.816,431.421,271.816Zm-20.21,21.52c-2.526-1.133-.907-4.109,1.294-2.736.7.435-.36,1.642.165,1.892a5.883,5.883,0,0,0,6.175-.876c2.587-2.308,4.2-5.141,6.283-8.027a10.822,10.822,0,0,1,5.643-4.012c-4.337-1.685-9.507-2.4-12.97,1.272-1.224,1.282-2.275,2.73-1.461,4.434,1.165,2.428,3.96.487,5.726.487-.016,1.447-3.746,2.8-5.7,2.412a2.835,2.835,0,0,1-2.24-1.947c-.633-2.671,1.053-4.771,3.209-6.475a12.82,12.82,0,0,1,5.89-2.4c6.307-1.132,12.048,1.594,18.48.468a.325.325,0,0,1,.265.5,4.437,4.437,0,0,1-2.444,1.107c-2.425.818-5.042.013-7.493.428-1.272.192-2.537,1.48-3.293,2.788C425,289.158,419.621,296.477,411.211,293.336Zm37.374-6.937a55.659,55.659,0,0,0-4.609,5.843.333.333,0,0,0,.273.5c2.5.043,3.791-4.031,5.459-3.583,0,.467-3.8,5.249-6.692,4.777-1.532-.24-.6-2.152-.912-2.009-1.824.883-4.013,3.2-6.056,2.084a2.885,2.885,0,0,1-1.021-2.606,6.862,6.862,0,0,1-2.8,2.321c-1.2.613-2.146-.023-2.364-1.418-1.265,1.3-4.03,2.584-4.638.539-.909-3.035,2.169-5.41,4.692-6.8a10.72,10.72,0,0,1,2.332-.834c1.521-.37,1.594.762,1.827.64,1.089-.549,1.826-.5,2.157.09-1.311,2.1-2.942,3.217-4.307,6.3-.268.571.38.571.768.357,2.749-1.565,5.018-8.524,11.251-7.1,1.737.4.294,2.638-.863,2.067a1.084,1.084,0,0,1-.615-1.438c-.312-.305-.922-.217-1.629.455-1.638,1.555-4.072,3.142-3.584,5.709.156.864,1.289.805,1.983.532,3.055-1.282,5.2-4.152,7.19-6.732a3.292,3.292,0,0,1-1.188-.107.427.427,0,0,1,.229-.769,3.967,3.967,0,0,0,1.42-.088c1-.581.886-1.983,1.72-2.756.459-.454,1.6-.2,2.314-.24-.112,1.182-1.128,2.259-1.488,3.243-.152.5,1.488-.277,1.53.5C450.936,286.5,449.6,286.4,448.584,286.4Z" transform="translate(-404.32 -271.816)" fill="#fff"/>
        </g>
      </g>
    </g>
    <g id="グループ_119" data-name="グループ 119" transform="translate(134.073 249.325)">
      <path id="パス_197" data-name="パス 197" d="M361.937,271.517c.74-1.744,1.659-3.642,2.477-5.914-10.773,5.405-14.617,12.362-15.678,16.221C356.286,279.537,360.226,275.671,361.937,271.517Z" transform="translate(-203.885 -254.619)" fill="#fff"/>
      <path id="パス_198" data-name="パス 198" d="M315.511,257.729c9.178,1.53,11.171,5.3,15.231,13.039,0,0,.325.628.645,1.224C321.874,272.619,318.409,267.784,315.511,257.729Zm38.044,1.163a34.818,34.818,0,0,0,.652-3.806c-11.291,1.541-17.768,8.342-20.465,16.389l-.007-.019-.872-1.626c-4.421-8.43-6.859-13.062-18.853-14.573l-1.792-.225.474,1.736c2.819,10.533,6.28,19.159,20.132,17.7h.03a86.5,86.5,0,0,0-3.215,15.081,21.892,21.892,0,0,1-4.45-.577c-5.816-1.37-8.529.814-9.49,2.75v2.039h36.212v-8.319c-8.4-4.127-9.95,1.338-14.419,2.926a17.915,17.915,0,0,1-1.957.569c-.642-3.3-1.342-9.574-.4-13.616h-.011C337.4,270.21,342.823,263.673,353.555,258.892Z" transform="translate(-192.008 -251.181)" fill="#fff"/>
      <path id="パス_199" data-name="パス 199" d="M163.764,264.063a2.4,2.4,0,0,1,2.052-2.586,2.648,2.648,0,1,1-2.052,2.586Zm.663,15.533c0-3.966-.476-4.269-3.039-3.458v-.7l6.431-2.665V291.8c0,2.2.6,3.1,3.094,3.3v.7h-9.525v-.7c2.413-.2,3.039-1.109,3.039-3.3Z" transform="translate(-142.957 -253.277)" fill="#fff"/>
      <path id="パス_200" data-name="パス 200" d="M192.483,291.633c0-4.525-1.2-11.922-5.771-11.922-2.97,0-4.525,3.477-4.525,7.848-.034,7.1,1.891,12.7,5.734,12.7C191.032,300.262,192.483,296.028,192.483,291.633Zm3.693-2.352c0,6.544-3.4,12.488-8.981,12.488-5.183,0-8.705-5.4-8.705-11.483,0-6.7,3.117-12.071,8.705-12.071C192.483,278.216,196.176,282.683,196.176,289.281Z" transform="translate(-148.518 -258.721)" fill="#fff"/>
      <path id="パス_201" data-name="パス 201" d="M215.757,292.551c2.3,0,2.983-2.528,2.983-4.991,0-2.765-1.245-7.952-3.982-7.952-2.365,0-3.148,2.283-3.148,4.8C211.61,287.56,212.492,292.551,215.757,292.551ZM209.438,305.8c0,1.806,1.539,3.572,5.718,3.572,4.764,0,7.782-1.885,7.782-4.742,0-2.563-2.783-2.643-5.443-2.651a29.516,29.516,0,0,1-6.078-.628C210.629,302.522,209.438,304.171,209.438,305.8Zm14.982-23.97h-3.344a13.165,13.165,0,0,1,.76,4.33c0,4.842-2.981,7.654-6.479,7.654a20.344,20.344,0,0,1-2.163-.241c-.8.175-2.565,2.306-2.3,3.4.522,1.063,2.734,1.063,3.572,1.117,5.368.275,9.587-.256,9.587,5.622,0,5.684-6.753,8.48-10.513,8.48-4.67,0-6.963-3.167-6.963-5.206,0-2,1.884-3.4,4-5.78-.889-.463-2.135-1.22-2.135-2.608,0-2.024,1.968-4.078,3.576-5.5a7.184,7.184,0,0,1-3.748-6.751c0-4.977,3.228-8.135,7.033-8.135,3.475,0,3.879,2.5,9.118,1.659Z" transform="translate(-157.653 -258.721)" fill="#fff"/>
      <path id="パス_202" data-name="パス 202" d="M249.532,291.633c0-4.525-1.226-11.922-5.827-11.922-2.96,0-4.513,3.477-4.513,7.848-.029,7.1,1.906,12.7,5.751,12.7C248.057,300.262,249.532,296.028,249.532,291.633Zm3.694-2.352c0,6.544-3.421,12.488-9.023,12.488-5.167,0-8.688-5.4-8.688-11.483,0-6.7,3.129-12.071,8.688-12.071C249.532,278.216,253.226,282.683,253.226,289.281Z" transform="translate(-167.064 -258.721)" fill="#fff"/>
      <path id="パス_203" data-name="パス 203" d="M267.1,267.631c0-3.66-.336-3.232-3.134-3.232v-.708a38.859,38.859,0,0,0,6.548-2.215V291.8c0,2.2.572,3.1,3.085,3.3v.7h-9.633v-.7c2.505-.2,3.134-1.109,3.134-3.3Z" transform="translate(-176.316 -253.277)" fill="#fff"/>
      <path id="パス_204" data-name="パス 204" d="M293.093,280.712c0-3.634-1.239-6.445-4.175-6.445-3.354,0-4.972,4.731-4.972,9.405,0,6.594,2.342,10.22,5.6,10.22,2.3,0,3.542-2.211,3.542-3.929Zm3.42,10.568c0,1.813,1.409,1.564,2.71,1.5v.8a38.459,38.459,0,0,0-6.13,2.879v-3.679h-.084a5.862,5.862,0,0,1-5.026,3.542c-5,0-7.479-5.462-7.479-11.077,0-5.9,3.234-12.476,8.472-12.476a5.282,5.282,0,0,1,4.118,2v-7.145c0-3.435-.221-2.979-2.632-2.979v-.96a31.4,31.4,0,0,0,3.523-1.155l2.528-1.059Z" transform="translate(-181.695 -253.277)" fill="#fff"/>
      <rect id="長方形_72" data-name="長方形 72" width="5.114" height="42.452" fill="#fff"/>
      <path id="パス_205" data-name="パス 205" d="M144.056,249.4s5.108,5.508,5.108,11.073c0,5.535-5.16,10.281-5.16,10.281s4.755,3.182,4.755,10.729c0,5.951-4.755,10.319-4.755,10.319h4.755a14.8,14.8,0,0,0,4.368-10.717c0-6.946-4.074-10.331-4.074-10.331a14.264,14.264,0,0,0,4.074-10.281A15.648,15.648,0,0,0,148.7,249.4Z" transform="translate(-137.303 -249.348)" fill="#fff"/>
      <path id="パス_206" data-name="パス 206" d="M379.011,304.352a4.01,4.01,0,0,0,.926.13c.8,0,1.186-.34,1.186-1.029a.986.986,0,0,0-.3-.807,1.162,1.162,0,0,0-.779-.191,3.761,3.761,0,0,0-1.031.122Zm-.818-2.039-.437-.272.2-.37.541.164a1.647,1.647,0,0,0,.5.084,4.466,4.466,0,0,0,.458-.023,8.134,8.134,0,0,1,.907-.061,1.445,1.445,0,0,1,1.656,1.572,1.647,1.647,0,0,1-.54,1.3,1.6,1.6,0,0,1-.482.245l.207.382a11.807,11.807,0,0,0,1.274,2.058l-.951.352a25.05,25.05,0,0,1-1.36-2.655,3.79,3.79,0,0,1-1.153-.153v3.217h-.818Z" transform="translate(-213.323 -266.348)" fill="#fff"/>
      <path id="パス_207" data-name="パス 207" d="M375.6,304.221a3.344,3.344,0,0,1,3.335-3.359,3.374,3.374,0,1,1-3.335,3.359Zm-.773,0a4.137,4.137,0,1,0,4.108-4.12A4.139,4.139,0,0,0,374.829,304.221Z" transform="translate(-212.37 -265.838)" fill="#fff"/>
    </g>
  </g>
</svg>
