<svg id="グループ_183" data-name="グループ 183" xmlns="http://www.w3.org/2000/svg" width="38.551" height="38.618" viewBox="0 0 38.551 38.618">
  <path id="パス_540" data-name="パス 540" d="M864.663,44.342,853.781,33.43a15.514,15.514,0,0,0,1.394-2.112l.036-.072c.185-.335.353-.676.514-1.029.066-.156.119-.311.185-.467.09-.227.191-.455.269-.688.06-.168.107-.335.155-.5.078-.239.156-.473.216-.712.024-.1.042-.2.066-.305a15.533,15.533,0,0,0,.419-3.482,15.293,15.293,0,0,0-1.125-5.767l-.024-.06c-.083-.2-.173-.4-.269-.6l-.036-.078c-.1-.2-.2-.407-.3-.6l-.03-.054a15.147,15.147,0,0,0-16.973-7.628l-.216.048c-.251.066-.5.144-.754.221-.15.048-.305.09-.461.144-.251.084-.49.191-.736.287-.138.06-.281.108-.419.168a14.961,14.961,0,0,0-3.213,1.938,14.8,14.8,0,0,0-2.591,2.567,15.259,15.259,0,0,0-1.394,2.118l-.012.024c-.191.353-.371.712-.532,1.077-.06.138-.114.275-.168.413-.1.251-.2.491-.293.742-.054.15-.09.305-.138.455-.084.251-.162.5-.233.76-.018.09-.036.179-.054.263a15.193,15.193,0,0,0,18.415,18.3l.12-.03c.281-.072.563-.162.838-.245.125-.042.251-.072.377-.12.251-.084.5-.191.742-.293.144-.054.281-.1.419-.162.293-.132.574-.275.855-.425.084-.042.174-.084.258-.126A15.446,15.446,0,0,0,851.2,36l10.889,10.924a1.806,1.806,0,0,0,1.286.532,1.828,1.828,0,0,0,1.292-3.117ZM853.236,24.055a11.274,11.274,0,0,1-2.172,6.653,10.987,10.987,0,0,1-2.578,2.579,11.264,11.264,0,0,1-6.665,2.148,11.4,11.4,0,0,1-11.379-11.409A11.406,11.406,0,0,1,841.851,12.64,11.418,11.418,0,0,1,853.236,24.055Z" transform="translate(-826.643 -8.841)" fill="#fff"/>
</svg>
