<svg xmlns="http://www.w3.org/2000/svg" width="44.665" height="31.65" viewBox="0 0 44.665 31.65">
  <g id="コンポーネント_63_4" data-name="コンポーネント 63 – 4" transform="translate(0 0)">
    <path id="パス_310" data-name="パス 310" d="M299.608,2347.012a5.632,5.632,0,0,0-3.948-4c-3.483-.944-17.45-.944-17.45-.944s-13.967,0-17.45.944a5.632,5.632,0,0,0-3.948,4c-.934,3.525-.934,10.882-.934,10.882s0,7.356.934,10.882a5.625,5.625,0,0,0,3.948,4c3.483.946,17.45.946,17.45.946s13.967,0,17.45-.946a5.625,5.625,0,0,0,3.948-4c.934-3.526.934-10.882.934-10.882S300.542,2350.537,299.608,2347.012Zm-27.235,17.562v-13.358l11.673,6.679Z" transform="translate(-255.877 -2342.069)" fill="#bdbebf"/>
  </g>
</svg>
